<svg version="1" xmlns="http://www.w3.org/2000/svg" width="3333.333" height="3333.333" viewBox="0 0 2500.000000 2500.000000"><path d="M868 1.6c-28.3 5-51 20-74 49-8.4 10.6-20.3 31.3-27.9 48.4-1.8 4.1-3.9 8.8-4.6 10.5-5.1 11.4-16.2 45-19 57.2-.2 1-1.3 5.2-2.5 9.3-1.1 4.1-2.2 8.8-2.5 10.5-.3 1.6-1.2 5.5-2 8.5-.7 3-1.6 6.8-1.8 8.5-.3 1.6-1 5-1.6 7.5-2.9 12.8-10 59.3-12.5 82-.4 3-.8 6.8-1.1 8.5-.2 1.6-.7 5.7-.9 9-.3 3.3-1 10.9-1.5 17-1.4 15.1-2.1 24.8-2.6 32.5-.3 5.9-1 17.8-2.2 37.5-.2 3.8-.6 46.4-.7 94.5-.2 48.1-.6 92-1 97.5-1.2 15.6-1.5 19.7-2 23.5-.3 1.9-.8 6-1.1 9.1-.3 3.1-.7 6.5-.9 7.5-.2 1.1-.7 3.9-1.1 6.4-.4 2.5-.9 5.4-1.1 6.5-.2 1.1-.7 3.3-.9 5-3.3 18.6-12.6 43.3-20.9 54.8-11.9 16.6-24.5 23.7-42.8 24.2-8.4.2-13.6-.4-27.3-3-4.7-.9-17.5-4.5-23.5-6.7-12.8-4.6-17.9-6.5-24-9.1-23.1-9.8-24.9-10.7-48.5-22.3-19.6-9.7-36.1-18.2-53.2-27.4-4-2.2-10.5-5.7-14.5-7.9-4-2.1-9.8-5.2-12.8-6.8-9.7-5.3-20.2-10.9-31.5-16.8-6-3.2-12.8-6.8-15-8-25.1-14.1-71-36.7-97-47.6-7.7-3.3-14.9-6.4-16-6.9-5.3-2.4-32.5-11.3-37.8-12.4-1.2-.3-5.6-1.2-9.7-2.1-14.8-3.2-29-4-37.2-2.1-20.5 4.7-36.8 24.8-47.8 58.6-1.7 5.2-3.2 10.4-3.5 11.5-.2 1.1-1.3 6.3-2.4 11.5-1.1 5.2-2.2 11.5-2.6 14-.3 2.5-.8 5.6-1 7-1.1 6.7-2.1 16.4-3.1 32-1.4 20.7-.7 79.6 1.1 91 .2 1.4.6 5.6 1 9.5 3 35.1 12.9 85.1 23.6 120 8.2 26.9 20.1 58.7 28.9 77.2 1.7 3.5 3 6.5 3 6.8 0 1.7 21 42.2 29.3 56.8 22.7 39.3 53.2 83 81.6 116.8 5.8 6.9 11.7 14 13.1 15.6 3 3.7 16.1 18.2 25 27.8 18.1 19.5 59.6 60 78.4 76.6 2.1 1.9 4.4 3.9 5 4.4 8.4 7.9 56.7 48.1 66.6 55.5 1.8 1.4 6.9 5.4 11.4 8.9 8.2 6.4 40.3 30.5 53 39.6 3.7 2.8 9.4 6.8 12.5 9.1 21.8 15.8 58.4 41.4 59.1 41.4.5 0 1 .3 1.2.8.2.4 9.5 7.2 20.8 15.2 19.3 13.5 43.7 31.3 49 35.6 18.9 15.4 29.2 25.9 33.3 34 .9 1.7 3.6 11.4 6.1 21.5 26.2 107.9 63.5 195.4 114 267.9 27.4 39.2 63.6 78.4 98.1 106.2 66.5 53.5 144.4 87.7 234.3 102.7 13.7 2.3 15.6 2.6 32.7 4.5 29.3 3.3 43.4 4.1 75.5 4.1 23.2 0 47-.9 50.2-1.9.7-.3 4.2-.7 7.8-1 23.7-2.1 58.2-9.7 86.7-19.1 122.8-40.7 228.9-139.2 311.6-289.5 7.3-13.2 33.7-65.2 33.7-66.3 0-.3 2-4.7 4.4-9.8 5.3-11.5 21.4-48.9 26.6-61.9 2.1-5.2 6.6-16.3 10-24.5 3.4-8.3 6.8-16.6 7.5-18.6 2.8-7.6 11.3-24.5 13.1-26 1-.9 11.1-7.1 22.4-13.9 25.4-15.3 60.8-38.2 84.5-54.8 23.2-16.2 64.6-47.2 78.1-58.6 3.3-2.8 8-6.7 10.4-8.6 2.4-1.9 5.1-4.2 6-5 .9-.8 4.3-3.7 7.5-6.4 3.3-2.6 9.1-7.6 12.9-11 3.8-3.3 7.7-6.8 8.6-7.6 26.3-22.9 73.5-70 92.1-92 3.5-4.1 6.6-7.7 7-8 1-.8 9.2-10.3 12.9-14.9 1.9-2.4 4-4.8 4.5-5.5 3.2-3.5 24.4-30.8 31.7-40.6 10.8-14.7 28.6-40.7 36.2-53 3.2-5.2 7.8-12.5 10.2-16.2 2.4-3.7 4.4-6.9 4.4-7.1 0-.2 3.2-6 7.1-12.8 13.1-22.7 31.4-59.8 40.9-82.4 2.3-5.5 4.7-11.4 5.5-13 7.4-16.9 26.1-73 30-90.5.2-.8 2-8.2 3.9-16.3 1.9-8.2 3.7-16.3 4-18 .3-1.8.8-4.3 1.1-5.7.8-3.7 4.4-25 4.9-29 .2-1.9.9-8 1.6-13.5.6-5.5 1.3-11 1.5-12.3 2.4-14.6 2.6-69.3.2-79.9-4.1-18.5-13.9-29.1-31.4-33.9-7.8-2.1-22.3-2.5-29.8-.7-7.6 1.7-29.4 8.9-36 11.8-2.7 1.2-8.4 3.7-12.5 5.5-19.9 8.5-43.4 20.1-143 70.8-36.9 18.7-65.3 32.3-78.5 37.3-2.7 1.1-5.9 2.4-7 2.9-9 4-29.1 9.6-36 9.9-3.9.2-5.5-.2-7.2-1.9-5.9-5.4-8.1-16.3-8.5-41.5-.2-8.1 1-38.5 1.7-44 .2-1.7.7-7.1 1-12 .3-5 .8-9.7 1-10.5.2-.8.6-5.1 1-9.5.3-4.4.8-9.6 1-11.5.2-1.9.6-6.2 1-9.5.8-8.2 1.3-13.2 2.6-25.5.6-5.8 1.2-12.1 1.4-14 .2-1.9.6-5.9.9-8.8.3-2.8.8-7.3 1.1-10 .3-2.6.7-6.5 1-8.7.2-2.2.7-7.2 1.1-11 .3-3.9.8-7.8.9-8.7.2-.9.6-4.8 1-8.5.3-3.7.8-8.4 1-10.3.3-1.9.7-5.8.9-8.5 1.2-12.9 1.8-18.2 2.1-20.5.2-1.4.7-6.3 1-10.9.4-4.7.8-9.2 1-10 .1-.9.6-5 .9-9.1.4-4.1.9-9.1 1.1-11 .2-1.9.6-6.4.9-10 .4-3.6.8-8.5 1.1-11 .2-2.5.6-8.1 1-12.5.7-10.7 1.4-19 2-24.5.3-2.5.7-9.7 1-16 .4-6.3.8-13.5 1-16 .7-8.2 2.3-41.2 3-64 .6-18.7.6-62.5 0-67-.2-1.9-.7-6-1-9-1-9.4-2.5-18.1-5.1-29.9-11.6-51.9-33.5-86.9-59.1-94.4-3.8-1.1-8.3-1.4-17.5-1.1-13.7.4-13.8.5-26 2.8-19.8 3.8-40.1 11.8-68.8 27.4-3.6 1.9-6.9 3.8-7.5 4.2-.5.4-4.1 2.4-8 4.5-3.8 2-11.3 6.1-16.5 9-5.2 2.9-15.3 8.1-22.5 11.5-7.1 3.4-13.8 6.6-14.7 7.1-5.1 2.6-27.7 11.2-39.3 15-26 8.5-61.5 16.1-91 19.4-2.7.3-6.6.8-8.5 1-6 .8-17 1.7-23.4 2-3.3.2-11.9.6-19.1 1-22.2 1.3-67.3.8-93-1-17.9-1.2-23.1-1.6-24.5-2-.8-.2-4.6-.6-8.5-1-3.8-.3-8.1-.8-9.5-1-1.4-.2-4.5-.7-7-1-2.5-.3-5.4-.7-6.5-.9-2.2-.4-12.4-2-14-2.1-1.2-.2-11.8-1.8-12.5-2-.9-.2-11.5-2.5-14-3-6.2-1.3-11.7-2.5-13.5-2.9-4.7-1-30.2-7.7-32.5-8.6-1.4-.5-6.5-2.1-11.5-3.5-4.9-1.5-12.4-3.9-16.5-5.5s-10.9-4.1-15-5.6-9.3-3.5-11.5-4.5c-2.2-.9-8.5-3.7-14-6-15.1-6.5-46.3-22.5-62-31.9-12.8-7.7-48.3-31-51.6-33.9-.8-.7-7.3-5.6-14.5-10.9-7.1-5.3-15-11.3-17.5-13.3-2.4-1.9-8-6.4-12.4-9.8-9.6-7.6-10.7-8.5-31-24.8-8.8-7-17.8-14.2-19.9-15.8-2.2-1.7-6.2-4.8-9-7.1-7.4-5.9-30.9-23.1-39.1-28.6C999 29.2 969 14.8 945 8.1c-9.5-2.6-20.8-5-26.8-5.6-2.6-.3-5.8-.7-7.2-1-5.7-1.3-35.7-1.2-43 .1zM1633.6 1972.2c-8.4 1-21.4 4.2-28.1 6.9-10.4 4.3-24.9 12.6-29.7 17.1-.7.7-3.3 3.1-5.8 5.2-22 19.5-42.4 57.2-43.4 80.1-.3 7.7 1.4 17.9 3.9 23.9 2.1 4.9 10.3 12.8 16.1 15.6 4.9 2.3 13.4 4.7 20.4 5.7 11.2 1.7 45.6.7 58.5-1.8 2.8-.5 6.4-1.2 8-1.5 5.6-.9 18-4.5 24.5-7.1 27.3-10.7 43.8-28.3 49.4-52.4 1.4-6.3 1.5-22.3.1-30.9-3.8-23.7-14.7-43.2-29.4-52.4-11.6-7.4-27.4-10.3-44.5-8.4zM1233.8 2099.4c-.1.2-7.9.6-17.3.9-9.3.3-18.1.8-19.5 1.1-1.4.3-4.1.9-6 1.2-12.8 2.2-29.4 8.6-41 15.7-3.9 2.4-3.5 2.1-11 8.1-15.9 12.7-27.1 30.7-30.5 49.1-6.4 34.1 11.6 61.3 48.8 74 14.4 4.9 26.1 6.4 46.2 6 9.9-.2 19.1-.6 20.5-.9 1.4-.3 7-1.2 12.5-2.1 36.4-5.8 62.8-17 79.7-33.9 7.9-8 12.1-15 15.5-26.1 1.6-4.9 2.2-22.1 1-27.5-.3-1.4-1-4.9-1.6-7.8-3.5-17.8-15.5-34.2-31.6-43.3-13.1-7.3-33.3-12.5-53.4-13.5-5.3-.3-10.1-.7-10.8-.9-.6-.2-1.3-.2-1.5-.1zM1192.8 2387.5c-.2.2-14.5.6-31.8 1-34.8.7-48.5 1.1-73 2-9.1.3-22.8.8-30.5 1-7.7.3-16.9.7-20.5 1-3.6.2-13.7.7-22.5 1-8.8.4-18.5.8-21.5 1-3 .2-10.7.6-17 1-6.3.3-14.6.8-18.5 1.1-3.8.2-10.4.6-14.5.9-4.1.3-10.6.8-14.5 1-3.8.3-9.9.7-13.5 1-3.6.3-9.6.7-13.5 1-3.8.2-8.8.6-11 .9-2.2.3-7.4.8-11.5 1.1-4.1.4-9.6.8-12.2 1-6.3.6-25.5 2.4-29.8 3-1.9.2-6.2.7-9.5 1-3.3.3-7.1.8-8.5 1-1.4.2-4.7.6-7.5 1-10.3 1.2-12.2 1.5-22 2.9-25.4 3.7-47.3 7.6-57.5 10.1-.8.3-4.2 1.1-7.5 1.9-15.3 3.8-27.4 8.8-32.4 13.5-9.7 9.1 3.2 17.6 40.4 26.6 5.5 1.3 11.4 2.6 13 2.9 1.7.2 5.5.9 8.5 1.6 3 .6 6.6 1.2 8 1.4 1.4.3 4.5.8 7 1.2 2.5.4 5.4.8 6.5.9 1.1.2 4.7.8 8 1.3 5.1 1 13.8 2.1 35.5 4.7 8.1 1 32.4 3.6 38.5 4.1 3.3.3 6.9.6 8.1.8 1.1.2 6.5.7 12 1 5.4.4 11.3.9 12.9 1.1 3.2.5 10.3 1 38 3 5.5.3 12 .8 14.5 1 2.5.2 9.2.6 15 1 5.8.3 13.7.7 17.5 1 3.9.3 11.7.7 17.5 1 5.8.3 14.3.7 19 1 4.7.3 14.7.7 22.2 1 7.4.3 17.8.8 22.9 1 71.2 3 131 4 235.9 4 81.4-.1 135.2-.6 177-2 18-.6 48.3-1.6 57-2 4.1-.2 14.5-.6 23-.9 15.5-.6 27.3-1.2 42.8-2.1 11.4-.7 22.9-1.3 34.7-2 5.5-.3 12-.8 14.5-1 2.5-.2 8.3-.7 13-1 19.9-1.2 29.6-2 39.5-3 2.2-.2 7.9-.7 12.6-1 4.7-.3 9.5-.7 10.5-.9 1-.2 5.5-.7 9.9-1.1 4.4-.3 9.4-.8 11-1 1.7-.3 5.7-.7 9-1 6.1-.5 8.6-.8 23-2.6 24.7-3 52.2-7.3 69.7-10.8 60-12.2 71.8-25.7 33.7-38.6-5.9-2.1-22.9-6.5-30.4-7.9-13.4-2.7-28.8-5.4-33.1-6-2.3-.3-8.4-1.2-13.5-2-5.2-.8-11.9-1.8-14.9-2.1-3-.3-6.8-.8-8.5-1-1.6-.2-5.2-.7-8-1-2.7-.3-6.3-.8-8-1-1.6-.2-6.1-.7-10-1-3.8-.4-8.3-.8-10-1-3.6-.4-12.9-1.3-20.5-2-3-.3-7.7-.7-10.5-1-2.7-.3-8.1-.7-12-1-3.8-.3-9.2-.7-12-1-4.8-.5-8.1-.7-26.5-2-4.7-.3-11.2-.8-14.5-1-3.3-.3-10-.7-15-1-8.5-.4-15.4-.8-36-2-4.9-.3-13.7-.8-19.5-1-5.8-.3-15-.7-20.5-1-28.7-1.3-49.8-2.1-86-3-12.1-.3-28.5-.8-36.5-1.1-15.4-.5-234.7-1.3-235.2-.9z"/></svg>