<?xml version="1.0" standalone="no"?>
<!DOCTYPE svg PUBLIC "-//W3C//DTD SVG 20010904//EN"
 "http://www.w3.org/TR/2001/REC-SVG-20010904/DTD/svg10.dtd">
<svg version="1.0" xmlns="http://www.w3.org/2000/svg"
 width="500.000000pt" height="500.000000pt" viewBox="0 0 500.000000 500.000000"
 preserveAspectRatio="xMidYMid meet">
<metadata>
Created by potrace 1.11, written by Peter Selinger 2001-2013
</metadata>
<g transform="translate(0.000000,500.000000) scale(0.100000,-0.100000)"
fill="#000000" stroke="none">
<path d="M1037 4874 c-1 -1 -33 -4 -72 -8 -105 -9 -163 -20 -250 -48 -331
-108 -538 -339 -630 -703 -23 -91 -29 -131 -41 -265 -8 -98 -9 -2597 0 -2716
4 -50 8 -99 10 -110 2 -10 7 -39 11 -64 54 -344 249 -621 526 -748 96 -44 247
-84 362 -97 55 -6 302 -7 347 0 197 27 320 65 457 144 132 76 261 218 337 369
56 110 97 264 122 457 4 28 7 222 8 432 l2 383 -348 0 -348 0 0 -367 c-1 -203
-3 -386 -6 -408 -10 -78 -44 -172 -79 -218 -68 -89 -165 -126 -316 -122 -113
3 -190 33 -249 95 -44 47 -63 84 -87 171 -17 60 -18 158 -18 1439 0 1068 3
1387 13 1428 47 202 176 297 390 287 178 -7 291 -101 332 -273 17 -75 18 -97
19 -404 l1 -278 344 0 c266 0 345 3 348 13 7 19 1 574 -6 637 -37 313 -133
535 -299 698 -187 184 -425 270 -764 276 -62 1 -114 1 -116 0z"/>
<path d="M2693 4822 c-16 -2 -23 -10 -23 -25 -1 -50 -1 -4575 -1 -4604 l1 -33
368 0 367 0 -1 998 -1 999 414 0 413 0 0 -31 c0 -17 1 -466 1 -998 l1 -968
374 0 374 0 -2 2331 -3 2332 -370 0 -370 0 -2 -969 c-1 -533 -2 -983 -2 -999
l-1 -30 -413 0 -414 0 0 993 c0 546 -3 995 -6 998 -6 7 -663 12 -704 6z"/>
</g>
</svg>
